<svg id="Layer_1" data-name="Layer 1" xmlns="http://www.w3.org/2000/svg" viewBox="0 0 175.39 175.4">
  <defs>
    <style>
      .cls-1 {
        fill: #0b318f;
      }

      .cls-2 {
        fill: #e60012;
      }

      .cls-3 {
        fill: #fff;
      }
    </style>
  </defs>
  <g>
    <path class="cls-1" d="M10.39,46.28A87.15,87.15,0,0,0,2.62,66.39H37.5Z"/>
    <path class="cls-1" d="M66.39,2.62A87.63,87.63,0,0,0,25.63,25.74L66.39,56Z"/>
    <path class="cls-1" d="M109,172.77a87.51,87.51,0,0,0,40.75-23.12L109,119.42Z"/>
    <path class="cls-1" d="M165,129.12A87.05,87.05,0,0,0,172.77,109H137.89Z"/>
    <path class="cls-1" d="M172.77,66.39A86.71,86.71,0,0,0,165,46.28L137.89,66.39Z"/>
    <path class="cls-1" d="M37.5,109H2.62a87.51,87.51,0,0,0,7.77,20.11Z"/>
    <path class="cls-1" d="M25.63,149.65a87.54,87.54,0,0,0,40.76,23.12V119.42Z"/>
    <path class="cls-1" d="M149.76,25.74A87.6,87.6,0,0,0,109,2.62V56Z"/>
    <path class="cls-2" d="M59,66.39,17.26,35.45c-1.69,2.28-3.28,4.65-4.75,7.09L44.66,66.39Z"/>
    <path class="cls-2" d="M116.43,109l41.7,30.93c1.7-2.28,3.28-4.65,4.75-7.09L130.74,109Z"/>
    <path class="cls-2" d="M66.39,109H59l-41.7,30.93q2.55,3.44,5.41,6.6l43.72-32.43Z"/>
    <path class="cls-2" d="M109,66.39h7.42l41.7-30.94c-1.7-2.28-3.5-4.49-5.41-6.6L109,61.28Z"/>
    <path class="cls-3" d="M174.46,100.48h-74v74c2.88-.43,5.73-1,8.52-1.69V119.42l40.75,30.23a87,87,0,0,0,8.37-9.71L116.43,109h14.31l32.14,23.84c.74-1.23,1.45-2.47,2.12-3.73L137.89,109h34.88C173.47,106.22,174,103.37,174.46,100.48Z"/>
    <path class="cls-3" d="M172.77,66.39H137.89L165,46.28a87.62,87.62,0,0,0-6.87-10.83l-41.7,30.94H109V61.28l43.71-32.43c-1-1.06-1.95-2.09-3-3.11L109,56V2.62A86.11,86.11,0,0,0,100.49.94v74h74Q173.82,70.57,172.77,66.39Z"/>
    <g>
      <path class="cls-3" d="M.94,100.48A85.74,85.74,0,0,0,2.62,109H37.5L10.39,129.12a87.94,87.94,0,0,0,6.87,10.82L59,109h7.43v5.1L22.67,146.54q1.44,1.59,3,3.11l40.76-30.23v53.35q4.19,1,8.52,1.69v-74H.94Z"/>
      <path class="cls-3" d="M66.39,2.62V56L25.63,25.74a89,89,0,0,0-8.37,9.71L59,66.39H44.66L12.51,42.54c-.73,1.23-1.44,2.47-2.12,3.74L37.5,66.39H2.62A85.54,85.54,0,0,0,.94,74.91h74V.94A85.54,85.54,0,0,0,66.39,2.62Z"/>
    </g>
    <path class="cls-2" d="M174.46,74.91h-74V.94a87.48,87.48,0,0,0-25.58,0v74H.94a87.41,87.41,0,0,0,0,25.57h74v74a87.48,87.48,0,0,0,25.58,0v-74h74a88.34,88.34,0,0,0,0-25.57Z"/>
  </g>
</svg>
